<svg xmlns="http://www.w3.org/2000/svg" viewBox="0 0 213.25 161.23"><defs><style>.cls-1{fill:#231f20;}</style></defs><g id="Layer_2" data-name="Layer 2"><g id="Layer_1-2" data-name="Layer 1"><path class="cls-1" d="M49,54.92c0,4.56-1.65,6.85-5,6.85a4.91,4.91,0,0,1-3.54-1.43A4.59,4.59,0,0,1,39,56.91a4.89,4.89,0,0,1,1.42-3.53,4.66,4.66,0,0,1,3.43-1.46A5.14,5.14,0,0,1,47,53.16V39q-2.31-.21-3.45-.21a16.85,16.85,0,0,0-12.39,5.3,17.3,17.3,0,0,0-5.23,12.57,17,17,0,0,0,5.27,12.67,18.36,18.36,0,0,0,20.46,3.47,16.81,16.81,0,0,0,6-4.54q4.14-5,4.13-12.84V24.14H49Z"/><rect class="cls-1" x="66.91" y="39.46" width="12.87" height="34.32"/><path class="cls-1" d="M73.38,36.46A6.44,6.44,0,0,0,78,34.74,6.08,6.08,0,0,0,77.9,26a6.48,6.48,0,0,0-9.05,0,5.87,5.87,0,0,0-1.91,4.36,5.78,5.78,0,0,0,1.81,4.4A6.42,6.42,0,0,0,73.38,36.46Z"/><path class="cls-1" d="M95.27,72.58q6.83-4.1,7.71-14c.19-2,.62-3.33,1.3-4s1.92-1,3.73-1V39.94h-3.89q-6.7,0-10.5,3.68a10.82,10.82,0,0,0-2.87,4.24,31.79,31.79,0,0,0-1,7.4q-.21,3.24-1.54,4.53c-.88.86-2.35,1.29-4.42,1.29h-.59V74.71H85Q91.66,74.71,95.27,72.58Z"/><path class="cls-1" d="M128.36,74.5a16.91,16.91,0,0,0,12.15-4.78,18.19,18.19,0,0,0,5.54-12.22L133.28,58q-1.38,3.83-4.65,3.82a5,5,0,0,1-3.73-1.51,5.13,5.13,0,0,1-1.5-3.76,5,5,0,0,1,1.41-3.64,4.81,4.81,0,0,1,3.61-1.45,5.14,5.14,0,0,1,4.27,2.2l13.05-.48a17.89,17.89,0,0,0-30.12-9.26,16.79,16.79,0,0,0-5.27,12.43,17.64,17.64,0,0,0,5.22,12.91A17.29,17.29,0,0,0,128.36,74.5Z"/><path class="cls-1" d="M167.94,38.74a18.07,18.07,0,0,0-13.08,5.14,17,17,0,0,0-5.3,12.69,17.18,17.18,0,0,0,5.3,12.65,18.17,18.17,0,0,0,25.53,0A17.82,17.82,0,0,0,180.46,44,17,17,0,0,0,167.94,38.74Zm3.19,21.51a4.74,4.74,0,0,1-3.53,1.52,4.68,4.68,0,0,1-3.49-1.52,5.31,5.31,0,0,1,0-7.31,4.68,4.68,0,0,1,3.51-1.5,4.75,4.75,0,0,1,3.55,1.5,5.33,5.33,0,0,1,0,7.31Z"/><path class="cls-1" d="M81.26,108.93Q80,107.39,80,103.29h5.78V89.69H80V76.54H67.1v28.19q0,7.33,3,11.78a16.62,16.62,0,0,0,6.21,5.5,17.43,17.43,0,0,0,8.24,2L86,124V110.48C83.7,110.48,82.12,110,81.26,108.93Z"/><path class="cls-1" d="M96.15,92.91q-4.07,4.43-4.06,11.86v18.76H105V107.25q0-5.37,3.51-5.37a5.12,5.12,0,0,1,2.45.75V88.86a26.62,26.62,0,0,0-3.93-.37A14,14,0,0,0,96.15,92.91Z"/><path class="cls-1" d="M131.57,88.52a17.79,17.79,0,0,0-17.9,17.87,17.19,17.19,0,0,0,5.17,12.77,17.64,17.64,0,0,0,12.9,5.09,17.38,17.38,0,0,0,2.9-.27V110.65a5.84,5.84,0,0,1-3.14.9,4.54,4.54,0,0,1-3.4-1.38,4.78,4.78,0,0,1-1.35-3.51,5.05,5.05,0,0,1,5-5,4.38,4.38,0,0,1,3.57,1.62,6.65,6.65,0,0,1,1.32,4.34v15.9h12.88V106.7q0-8.45-4.8-13.31T131.57,88.52Z"/><path class="cls-1" d="M187.45,0H25.8A25.84,25.84,0,0,0,0,25.8V135.42a25.84,25.84,0,0,0,25.8,25.81H187.45a25.84,25.84,0,0,0,25.8-25.81V25.8A25.84,25.84,0,0,0,187.45,0Zm20.64,135.42a20.67,20.67,0,0,1-20.64,20.65h-37.9v-2.2c0-2.73,0-9.23,2.15-12,2.33-3,10.46-1.8,14.3-1.94a18.92,18.92,0,0,0,13.91-6.26q4.82-5.28,4.82-13.84V89.21H171.85v18.14c0,2.25-.81,3.37-2.44,3.37s-2.55-1-2.55-3.06V89.21H154v21.58a13.34,13.34,0,0,0,3.09,9.07,10,10,0,0,0,7.89,3.57,13,13,0,0,0,6.61-2c-1.24,4.7-4,6.87-8.13,7.06-2.32.1-12.65-.21-16.74,2a17.28,17.28,0,0,0-6.22,5.51q-3,4.44-3,11.77v8.26H25.8A20.67,20.67,0,0,1,5.16,135.42V25.8A20.66,20.66,0,0,1,25.8,5.16H187.45A20.66,20.66,0,0,1,208.09,25.8Z"/><path class="cls-1" d="M59.33,125.36a8.74,8.74,0,0,1-8.73-8.73,2.06,2.06,0,0,0-4.12,0,8.74,8.74,0,0,1-8.73,8.73,2.06,2.06,0,0,0,0,4.12,8.74,8.74,0,0,1,8.73,8.73,2.06,2.06,0,0,0,4.12,0,8.74,8.74,0,0,1,8.73-8.73,2.06,2.06,0,1,0,0-4.12Zm-10.79,5.88a13.24,13.24,0,0,0-3.83-3.81,13.19,13.19,0,0,0,3.83-3.83,12.88,12.88,0,0,0,3.82,3.82A12.88,12.88,0,0,0,48.54,131.24Z"/><path class="cls-1" d="M36.3,118.23A14.72,14.72,0,0,1,51,103.49a2.07,2.07,0,0,0,0-4.13h-.08A14.72,14.72,0,0,1,36.25,84.67a2.07,2.07,0,1,0-4.13,0A14.75,14.75,0,0,1,17.38,99.41a2.1,2.1,0,0,0-2.07,2.07,2,2,0,0,0,2.12,2,14.74,14.74,0,0,1,14.74,14.75,2.07,2.07,0,1,0,4.13,0Zm-2.11-8.56A18.92,18.92,0,0,0,26,101.43a18.67,18.67,0,0,0,8.22-8.22,18.87,18.87,0,0,0,8.22,8.22A19,19,0,0,0,34.19,109.67Z"/></g></g></svg>